<?xml version="1.0" encoding="UTF-8"?>
<svg version="1.1" xmlns="http://www.w3.org/2000/svg" width="1024" height="1024">
<path d="M0 0 C3.37797531 1.47421842 6.15748982 3.53087284 9.05078125 5.7734375 C10.38769613 6.78210772 11.72632851 7.78850438 13.06640625 8.79296875 C14.13665039 9.59661865 14.13665039 9.59661865 15.22851562 10.41650391 C19.19492708 13.34674608 23.25050055 16.14838379 27.30078125 18.9609375 C33.82630435 23.50324387 40.30681144 28.09892165 46.73828125 32.7734375 C52.91009985 37.25726607 59.14593512 41.62745753 65.45019531 45.92260742 C70.52540945 49.39284467 75.51540752 52.97089389 80.48828125 56.5859375 C86.83615965 61.20004312 93.24514116 65.70571879 99.72607422 70.13061523 C105.8034752 74.28504711 111.79380749 78.55448618 117.77050781 82.85205078 C120.67200296 84.93621174 123.58044133 87.01064274 126.48828125 89.0859375 C129.96822763 91.56953863 133.44684486 94.05485902 136.91796875 96.55078125 C142.97866025 100.90335006 149.07584808 105.19096224 155.23828125 109.3984375 C161.90090889 113.94886177 168.45048911 118.6423146 174.97851562 123.38330078 C180.38916052 127.30777504 185.85521848 131.13508184 191.36328125 134.921875 C194.67750026 137.21697166 197.96167498 139.55015684 201.23828125 141.8984375 C210.90987188 148.82808234 220.62528985 155.69575103 230.3828125 162.50390625 C238.48472897 168.1576709 246.56084564 173.83717592 254.55078125 179.6484375 C260.62753671 184.06674094 266.77245658 188.36563637 272.98828125 192.5859375 C280.03177211 197.36840377 286.97012821 202.27430855 293.85717773 207.27905273 C300.97840626 212.45323488 308.16604176 217.52975527 315.36621094 222.59326172 C318.97162711 225.12933103 322.57397093 227.66975056 326.17578125 230.2109375 C326.88702148 230.71262451 327.59826172 231.21431152 328.33105469 231.73120117 C332.66604126 234.79157378 336.98792735 237.86947876 341.30078125 240.9609375 C346.91531536 244.98532703 352.5728388 248.94611694 358.23828125 252.8984375 C364.7211989 257.42116105 371.15884702 261.99809012 377.55078125 266.6484375 C384.59082135 271.76917825 391.73037052 276.72710218 398.94555664 281.59790039 C403.27824344 284.53157411 407.50300591 287.56414188 411.67138672 290.72680664 C414.88838339 293.13328614 418.24326756 295.3377657 421.58203125 297.5703125 C422.21109375 298.07046875 422.84015625 298.570625 423.48828125 299.0859375 C423.48828125 299.7459375 423.48828125 300.4059375 423.48828125 301.0859375 C422.02978516 302.30004883 422.02978516 302.30004883 419.96484375 303.66796875 C419.20051025 304.18093506 418.43617676 304.69390137 417.64868164 305.22241211 C416.81199951 305.77550049 415.97531738 306.32858887 415.11328125 306.8984375 C413.35283467 308.08135343 411.59375083 309.26629959 409.8359375 310.453125 C408.93891113 311.05866211 408.04188477 311.66419922 407.11767578 312.28808594 C403.20878443 314.96079494 399.37656663 317.73360588 395.55078125 320.5234375 C389.24372529 325.11385805 382.88896067 329.62696799 376.48828125 334.0859375 C370.02637491 338.58800869 363.60954478 343.14398798 357.23828125 347.7734375 C351.03810699 352.27608176 344.77827031 356.6744699 338.45166016 360.99731445 C327.65573184 368.37831316 317.01095575 375.96901944 306.42578125 383.6484375 C300.09738021 388.23908277 293.7066635 392.72244827 287.25024414 397.13085938 C280.59081973 401.68289202 274.03700294 406.37668065 267.48828125 411.0859375 C258.75660139 417.35729545 249.9728856 423.54889174 241.15600586 429.69995117 C235.5382261 433.62778226 229.96870186 437.61583282 224.42578125 441.6484375 C217.50462565 446.68207468 210.47684446 451.53770813 203.39575195 456.34301758 C197.76315267 460.17853563 192.24520849 464.14399885 186.77099609 468.20141602 C181.82153949 471.86422845 176.7827556 475.37289444 171.70703125 478.859375 C168.42263153 481.13135054 165.16972355 483.4443572 161.92578125 485.7734375 C156.22908781 489.8622128 150.48967635 493.88703883 144.73828125 497.8984375 C137.35766686 503.04904444 130.02945863 508.26583761 122.75097656 513.55981445 C117.37462912 517.46668664 111.94034946 521.28561203 106.48828125 525.0859375 C104.90345229 526.19373359 103.31881415 527.30180271 101.734375 528.41015625 C100.95167236 528.95752441 100.16896973 529.50489258 99.36254883 530.06884766 C90.07852887 536.56328983 80.81182489 543.08158181 71.56054688 549.62255859 C69.47048335 551.0985059 67.37815036 552.57118072 65.28515625 554.04296875 C58.10873442 559.09258272 50.96354589 564.17971774 43.86328125 569.3359375 C35.89271143 575.12165422 27.82256191 580.75790081 19.71826172 586.35449219 C18.35338623 587.29856934 18.35338623 587.29856934 16.9609375 588.26171875 C16.06391113 588.87740723 15.16688477 589.4930957 14.24267578 590.12744141 C12.30152449 591.50768566 10.39889031 592.94290109 8.52685547 594.41552734 C7.56408691 595.16656738 6.60131836 595.91760742 5.609375 596.69140625 C4.31471313 597.73590942 4.31471313 597.73590942 2.99389648 598.80151367 C0.48828125 600.0859375 0.48828125 600.0859375 -2.10571289 599.45288086 C-4.21586524 598.25402312 -6.18288888 597.05608174 -8.12890625 595.609375 C-8.80630859 595.11179687 -9.48371094 594.61421875 -10.18164062 594.1015625 C-11.2731543 593.28945312 -11.2731543 593.28945312 -12.38671875 592.4609375 C-19.52201639 587.2264121 -26.73262039 582.11850534 -34.01171875 577.0859375 C-41.76221516 571.71873154 -49.45240615 566.28080113 -57.08154297 560.74267578 C-67.43435758 553.22970384 -77.88769659 545.86491164 -88.44921875 538.6484375 C-94.88401635 534.24997829 -101.21092778 529.71572018 -107.51708984 525.13525391 C-115.64295807 519.24334902 -123.87708829 513.50922708 -132.10839844 507.76611328 C-137.90122486 503.71631326 -143.6682144 499.62978382 -149.43945312 495.54931641 C-151.52951665 494.0733691 -153.62184964 492.60069428 -155.71484375 491.12890625 C-162.97650296 486.01916037 -170.20371302 480.86824984 -177.38671875 475.6484375 C-183.52673512 471.18992491 -189.73412311 466.84839159 -196.01171875 462.5859375 C-203.05519778 457.80345266 -209.99356495 452.897567 -216.88061523 447.89282227 C-224.00612495 442.71552947 -231.19824957 437.63625098 -238.40283203 432.56982422 C-241.94213035 430.07944969 -245.47669331 427.58237165 -249.01171875 425.0859375 C-253.29591243 422.06113286 -257.58060656 419.03704589 -261.8671875 416.015625 C-268.36670635 411.43314629 -274.86053016 406.84384843 -281.32421875 402.2109375 C-287.81610073 397.56009346 -294.35862101 392.98276535 -300.90405273 388.40771484 C-311.97843824 380.66604989 -323.02009013 372.87975358 -334.00244141 365.00805664 C-339.06138718 361.39034704 -344.16096971 357.83186231 -349.26171875 354.2734375 C-355.80578756 349.70753409 -362.30622056 345.08869471 -368.76171875 340.3984375 C-374.93148954 335.91628049 -381.16510669 331.54753845 -387.46704102 327.25366211 C-393.37919785 323.21089249 -399.17778742 319.01898692 -404.97216797 314.80981445 C-411.41749923 310.13416322 -417.93869921 305.58021058 -424.51171875 301.0859375 C-423.18395133 297.99641942 -421.96457881 296.38961106 -419.16796875 294.53515625 C-418.5042627 294.0880127 -417.84055664 293.64086914 -417.15673828 293.18017578 C-416.09495361 292.48384033 -416.09495361 292.48384033 -415.01171875 291.7734375 C-413.54020743 290.78539026 -412.06885263 289.79710987 -410.59765625 288.80859375 C-409.88706055 288.33566895 -409.17646484 287.86274414 -408.44433594 287.37548828 C-402.25934809 283.24851686 -396.23634821 278.89163587 -390.21826172 274.52685547 C-383.70124452 269.80048258 -377.1647273 265.11935187 -370.51171875 260.5859375 C-364.86278175 256.73566352 -359.29263504 252.79137745 -353.76171875 248.7734375 C-344.88677735 242.32688141 -335.90609053 236.03851746 -326.91064453 229.76171875 C-317.3046989 223.0514388 -307.74997625 216.27413104 -298.26171875 209.3984375 C-292.2335342 205.03113141 -286.16897297 200.73358965 -280.03515625 196.515625 C-272.15561099 191.09468272 -264.34012648 185.58031425 -256.51171875 180.0859375 C-255.38878418 179.29799805 -255.38878418 179.29799805 -254.24316406 178.49414062 C-245.42213409 172.29988822 -236.64643643 166.04691939 -227.92529297 159.71264648 C-222.49683438 155.77496017 -217.01302653 151.92102223 -211.51171875 148.0859375 C-209.92689716 146.97813088 -208.34225924 145.87006144 -206.7578125 144.76171875 C-205.97510986 144.21435059 -205.19240723 143.66698242 -204.38598633 143.10302734 C-195.10196637 136.60858517 -185.83526239 130.09029319 -176.58398438 123.54931641 C-174.49392085 122.0733691 -172.40158786 120.60069428 -170.30859375 119.12890625 C-163.13217131 114.07929185 -155.98701483 108.99211429 -148.88671875 103.8359375 C-141.02144755 98.12728685 -133.05223842 92.57633047 -125.0625 87.04370117 C-118.2042758 82.2862098 -111.41704366 77.44063955 -104.66503906 72.53393555 C-99.37029094 68.69060393 -94.01673645 64.94858665 -88.625 61.2421875 C-85.37671928 58.99243724 -82.15914189 56.70232277 -78.94921875 54.3984375 C-73.22807754 50.29429921 -67.4704948 46.24424126 -61.69921875 42.2109375 C-54.00609357 36.8344673 -46.32746562 31.43827212 -38.6640625 26.01953125 C-35.84709558 24.02775662 -33.02650576 22.0412656 -30.203125 20.05859375 C-29.48890381 19.55626221 -28.77468262 19.05393066 -28.03881836 18.53637695 C-26.61757002 17.53723051 -25.19522628 16.53964021 -23.77172852 15.54370117 C-20.22020469 13.04708541 -16.72303536 10.50295697 -13.28515625 7.8515625 C-12.60791504 7.334729 -11.93067383 6.81789551 -11.23291016 6.28540039 C-9.95174323 5.30270696 -8.67991639 4.30767179 -7.41943359 3.29858398 C-4.92844486 1.39583296 -3.18665057 0.10903004 0 0 Z " fill="#565656" transform="translate(512.51171875,165.9140625)"/>
<path d="M0 0 C3.54166635 0.08235772 7.08354306 0.08898684 10.62601924 0.1043303 C17.30625994 0.14442543 23.98367017 0.25065771 30.66267508 0.38187367 C38.27799902 0.52817357 45.89347236 0.59890154 53.5098561 0.66391432 C69.15132542 0.79908924 84.78998464 1.02711252 100.42937922 1.31812119 C97.74473911 4.13278993 95.03315473 5.78999152 91.60125422 7.65405869 C91.02465556 7.96940568 90.4480569 8.28475266 89.85398555 8.60965562 C88.61274136 9.28789526 87.37023861 9.9638357 86.12661433 10.63770127 C82.8115202 12.43451378 79.50609893 14.24900016 76.19891047 16.06030869 C75.53291331 16.42440843 74.86691615 16.78850816 74.18073726 17.16364121 C64.535765 22.43992605 54.9836811 27.87992683 45.42937922 33.31812119 C44.35929622 33.92591416 43.28921321 34.53370713 42.18670344 35.15991807 C6.59800082 55.3363093 6.59800082 55.3363093 -28.21466374 76.80835557 C-30.78462957 78.45526424 -33.36599143 80.08321254 -35.94952703 81.70874619 C-48.01555503 89.31227078 -59.86735924 97.16836486 -71.57062078 105.31812119 C-72.38772527 105.88530869 -73.20482976 106.45249619 -74.04669499 107.03687119 C-96.31904053 122.50365794 -118.41957099 138.29595098 -139.81866765 154.95630479 C-141.81059939 156.50465975 -143.80775662 158.04615018 -145.80499578 159.58765244 C-155.25345346 166.89243656 -164.5898208 174.31922304 -173.82648015 181.88989854 C-175.39971001 183.17816767 -176.97710325 184.46134845 -178.55499578 185.74390244 C-184.00447425 190.17750993 -189.38482084 194.6856231 -194.73761296 199.23486924 C-198.13053829 202.11403456 -201.55352453 204.95034701 -205.00812078 207.75562119 C-209.87270702 211.71385076 -214.63124255 215.78461181 -219.38116765 219.87866807 C-222.88278429 222.89044107 -226.4183967 225.8486381 -230.00812078 228.75562119 C-235.25939066 233.01446359 -240.36020419 237.43557006 -245.44537663 241.89014268 C-246.05260564 242.42067246 -246.65983464 242.95120225 -247.28546453 243.49780869 C-247.82292302 243.96944444 -248.36038152 244.44108018 -248.91412663 244.92700791 C-249.4607697 245.3860753 -250.00741277 245.84514268 -250.57062078 246.31812119 C-251.44037541 247.13881089 -251.44037541 247.13881089 -252.32770085 247.97608018 C-255.52437985 249.88879864 -258.03948527 249.65661876 -261.74249578 249.61108994 C-262.76612218 249.60472268 -262.76612218 249.60472268 -263.8104279 249.59822679 C-265.98090082 249.58149092 -268.15043057 249.54385078 -270.32062078 249.50562119 C-271.79586774 249.49056765 -273.27112932 249.47688041 -274.74640203 249.46460557 C-278.35477922 249.43160496 -281.96260788 249.37985887 -285.57062078 249.31812119 C-283.7399323 245.38019566 -281.17209775 242.55519218 -278.19562078 239.44312119 C-273.89952725 234.87730613 -269.73814905 230.23466824 -265.69562078 225.44312119 C-260.77836688 219.6321921 -255.65243927 214.04833468 -250.43487859 208.50659776 C-247.00290874 204.86024942 -243.64969585 201.16916836 -240.37921453 197.37671494 C-233.09580508 189.08652753 -225.45155146 181.09763586 -217.90631413 173.04639268 C-215.31668672 170.27889659 -212.73861358 167.50316577 -210.19092107 164.69687486 C-203.79597701 157.65835766 -197.22984103 150.82837234 -190.49640203 144.11108994 C-189.47739224 143.09140333 -188.45853065 142.07156859 -187.43980718 141.05159593 C-185.32804364 138.93837588 -183.21452817 136.82692922 -181.09967351 134.71680284 C-178.41026724 132.03312219 -175.72541777 129.34493443 -173.0418551 126.65541196 C-170.94769748 124.55761792 -168.85113593 122.46223934 -166.7538693 120.36755395 C-165.76332053 119.37766442 -164.77349212 118.38705343 -163.78445172 117.39565682 C-158.72529142 112.32707545 -153.63698351 107.36206841 -148.18638921 102.7137053 C-146.03446757 100.85503077 -144.04983562 98.85823496 -142.07062078 96.81812119 C-138.82465759 93.53364658 -135.49413129 90.45659128 -131.98858953 87.45483994 C-128.67397781 84.52577272 -125.47538617 81.47829233 -122.25812078 78.44312119 C-117.08049727 73.57126537 -111.79439547 68.95362947 -106.23468328 64.51733994 C-103.30479644 62.09867969 -100.52917066 59.53916695 -97.75812078 56.94312119 C-93.07344737 52.5755128 -88.19861187 48.56412978 -83.12945867 44.65234971 C-78.39801503 40.99562062 -73.79017 37.20741148 -69.19562078 33.38062119 C-63.16047359 28.37297906 -57.06484015 23.47142741 -50.68504548 18.90641141 C-47.25749796 16.43666708 -44.09806339 13.93357504 -41.11336064 10.93916917 C-28.84427107 -0.81000296 -16.24549678 -0.44279155 0 0 Z " fill="#FDD65E" transform="translate(631.5706207752228,358.6818788051605)"/>
<path d="M0 0 C0.24844151 5.54980118 0.42920258 11.09632708 0.54931641 16.65039062 C0.59940697 18.53638107 0.66750636 20.42198695 0.75439453 22.30664062 C1.45388574 37.87649207 1.45388574 37.87649207 -1.94750977 42.84448242 C-4.52379744 44.93454608 -7.06463218 46.46313929 -10 48 C-11.54721452 49.06207098 -13.08301341 50.14101315 -14.60546875 51.23828125 C-16.13054473 52.26639282 -17.65793892 53.29107304 -19.1875 54.3125 C-25.04310201 58.26824368 -30.83134504 62.28049237 -36.5 66.5 C-42.95638212 71.30060547 -49.56963983 75.84653861 -56.22338867 80.3684082 C-61.33758992 83.84852295 -66.38344252 87.40099137 -71.3671875 91.06640625 C-81.00168429 98.14218654 -90.80983238 104.97684284 -100.60839844 111.82226562 C-106.04486473 115.62303589 -111.4589945 119.45247558 -116.8503418 123.31689453 C-123.48383418 128.06962292 -130.15670909 132.7664206 -136.82666016 137.46777344 C-140.38560492 139.97686548 -143.94274461 142.48851371 -147.5 145 C-151.78423464 148.0247467 -156.06888776 151.04889157 -160.35546875 154.0703125 C-166.85498594 158.65279004 -173.34893936 163.24191215 -179.8125 167.875 C-185.42703504 171.8993902 -191.08460401 175.86011159 -196.75 179.8125 C-203.35522872 184.42160175 -209.9184637 189.0822789 -216.4375 193.8125 C-222.46293 198.1844641 -228.52979101 202.47703513 -234.6640625 206.6953125 C-247.28359695 215.3870648 -259.73225314 224.33452689 -272.171875 233.28125 C-279.48133577 238.53136504 -286.8540209 243.68494395 -294.25 248.8125 C-302.01357761 254.19638872 -309.71790011 259.6495677 -317.36010742 265.20410156 C-325.36195705 271.01026158 -333.47587932 276.65407536 -341.58349609 282.31103516 C-350.92211174 288.83806516 -360.21507317 295.42930366 -369.4753418 302.06689453 C-375.54495017 306.40737529 -381.66683975 310.67308802 -387.79003906 314.9375 C-393.27886233 318.7676013 -398.68693307 322.67576641 -404.00390625 326.7421875 C-406 328 -406 328 -409 328 C-409.3739677 322.50555149 -409.6442543 317.01863817 -409.82397461 311.5144043 C-409.89892003 309.64818285 -410.00093955 307.7828281 -410.1315918 305.91967773 C-411.15446608 290.94560042 -411.15446608 290.94560042 -407.63238525 286.13018799 C-404.13662837 282.74711264 -400.12443187 280.33288203 -395.86526489 278.02554321 C-393.4166522 276.67926895 -391.17575025 275.09534857 -388.90625 273.46875 C-387.43886957 272.47713697 -385.97013641 271.48752249 -384.5 270.5 C-378.12802902 266.18184722 -371.8708256 261.74975256 -365.69433594 257.1574707 C-360.79840235 253.53763263 -355.79172479 250.10050156 -350.75 246.6875 C-344.16090257 242.2237245 -337.69826536 237.62503799 -331.3125 232.875 C-324.29700709 227.65668141 -317.18344721 222.62766187 -309.95703125 217.70703125 C-303.62537137 213.39192391 -297.38841099 208.94142418 -291.13671875 204.51171875 C-289.02071995 203.01465927 -286.90157948 201.52216813 -284.78125 200.03125 C-277.46310572 194.8829516 -270.17905114 189.6930765 -262.9375 184.4375 C-256.60705235 179.84518301 -250.21412977 175.36034772 -243.75537109 170.95068359 C-238.90900507 167.63817614 -234.11777127 164.25640773 -229.34960938 160.83251953 C-224.83476258 157.59112362 -220.29572379 154.38541824 -215.75 151.1875 C-209.77798467 146.98416693 -203.84737679 142.72768452 -197.9375 138.4375 C-191.69959667 133.9116081 -185.39794977 129.497735 -179.0300293 125.15722656 C-174.04414926 121.74696564 -169.13703314 118.23769036 -164.25 114.6875 C-155.37667956 108.24212133 -146.39736892 101.95546413 -137.40332031 95.68017578 C-131.61049389 91.63037576 -125.84350435 87.54384632 -120.07226562 83.46337891 C-117.9822021 81.9874316 -115.88986911 80.51475678 -113.796875 79.04296875 C-106.47393328 73.89019459 -99.18427794 68.69694516 -91.9375 63.4375 C-85.70465678 58.91539749 -79.40888613 54.50405619 -73.04541016 50.16821289 C-67.12039847 46.11669078 -61.31006456 41.91455047 -55.50219727 37.69750977 C-50.1583008 33.82221788 -44.76377412 30.03699588 -39.32421875 26.296875 C-35.44432955 23.62466464 -31.5973416 20.90627062 -27.75 18.1875 C-26.69111572 17.44052856 -26.69111572 17.44052856 -25.61083984 16.6784668 C-21.79982682 13.98785889 -17.99829879 11.28477505 -14.20703125 8.56640625 C-13.4294043 8.01122314 -12.65177734 7.45604004 -11.85058594 6.8840332 C-10.34976467 5.81222391 -8.85161496 4.7366617 -7.35644531 3.65698242 C-2.22500197 0 -2.22500197 0 0 0 Z " fill="#5C5C5C" transform="translate(936,494)"/>
<path d="M0 0 C4.39779653 1.65399942 7.84451258 3.92045236 11.5625 6.75 C17.56922728 11.23981619 23.65535548 15.59388831 29.8125 19.875 C36.31276783 24.40203855 42.77531786 28.97398396 49.1875 33.625 C61.87128136 42.82202135 74.70672292 51.80043331 87.54492188 60.7800293 C98.63452243 68.53867578 109.69355927 76.33936393 120.69946289 84.21630859 C127.38620163 88.99838599 134.10735081 93.73163013 140.82666016 98.46777344 C144.38560495 100.9768655 147.94272178 103.488546 151.5 106 C152.91665764 107.00001278 154.33332432 108.00001278 155.75 109 C158.58333333 111 161.41666667 113 164.25 115 C164.9514917 115.49516113 165.6529834 115.99032227 166.37573242 116.50048828 C167.78999378 117.49880954 169.20421914 118.4971818 170.6184082 119.49560547 C174.19658007 122.02171322 177.77540608 124.54688502 181.35546875 127.0703125 C182.7995184 128.08848603 184.24352901 129.10671492 185.6875 130.125 C186.39793457 130.62588135 187.10836914 131.1267627 187.84033203 131.64282227 C191.63899753 134.32379506 195.42601565 137.01983868 199.20092773 139.73413086 C205.28041474 144.10423315 211.4322556 148.35432177 217.625 152.5625 C223.78471867 156.75151938 229.8098287 161.05243222 235.734375 165.5703125 C242.50576205 170.66841071 249.54545951 175.41259148 256.5 180.25537109 C260.23902385 182.86465473 263.96432654 185.49316899 267.6875 188.125 C268.37674561 188.61202393 269.06599121 189.09904785 269.77612305 189.60083008 C271.15861361 190.57784202 272.54101968 191.55497354 273.92333984 192.53222656 C276.73739834 194.52118961 279.55272496 196.50835324 282.36816406 198.49536133 C283.78821219 199.49762388 285.2081343 200.50006501 286.62792969 201.50268555 C290.15477599 203.99310561 293.68316208 206.48128462 297.21484375 208.96484375 C304.47235112 214.07232086 311.69579586 219.22045023 318.875 224.4375 C325.79692189 229.4637856 332.81937546 234.32203954 339.89624023 239.12695312 C346.0621052 243.32616867 352.11921272 247.65968337 358.15136719 252.0480957 C364.64593977 256.76581111 371.21441692 261.37260637 377.7980957 265.96484375 C392.96269808 276.54721844 392.96269808 276.54721844 397.18701172 279.7902832 C399.05884838 281.11779483 399.05884838 281.11779483 401.59814453 282.12182617 C404.89438852 283.77635996 406.74721139 285.05084116 409 288 C410.70339181 294.59609371 409.93400706 301.70406124 409.625 308.4375 C409.57480174 310.33256542 409.52918088 312.22775797 409.48828125 314.12304688 C409.37844396 318.75184882 409.20614039 323.37452688 409 328 C404.97938167 327.14008965 402.42573013 325.3945866 399.0625 323 C397.89077745 322.17165931 396.71889831 321.34354008 395.546875 320.515625 C394.95326172 320.09345703 394.35964844 319.67128906 393.74804688 319.23632812 C391.12230171 317.37923685 388.46541603 315.56798815 385.8125 313.75 C379.77003655 309.57123612 373.82453122 305.26581097 367.87988281 300.94946289 C362.16179897 296.80959436 356.37257485 292.78644961 350.54101562 288.80859375 C346.87758581 286.30531104 343.25998672 283.75764791 339.6875 281.125 C334.7892671 277.52314152 329.77844758 274.10339525 324.75 270.6875 C318.25983556 266.27413737 311.86538926 261.76393786 305.55908203 257.09228516 C298.83854493 252.11977108 291.99850213 247.32044924 285.15722656 242.51611328 C281.60070593 240.01656675 278.05065901 237.50786242 274.5 235 C273.08336492 233.99995526 271.66669823 232.99995528 270.25 232 C256.08333333 222 241.91666667 212 227.75 202 C227.04883057 201.50508057 226.34766113 201.01016113 225.62524414 200.50024414 C224.20767346 199.49955812 222.79019308 198.49874417 221.37280273 197.49780273 C217.84569428 195.00724549 214.31707783 192.51888408 210.78515625 190.03515625 C203.52765027 184.92768011 196.30413676 179.77964151 189.125 174.5625 C182.92462426 170.05907629 176.65286363 165.67891669 170.3125 161.375 C164.03555166 157.11394577 157.86133434 152.75108974 151.76831055 148.23168945 C144.10796244 142.56721115 136.26694249 137.159782 128.45166016 131.71240234 C124.72959946 129.11266786 121.02007456 126.49533588 117.3125 123.875 C116.6230127 123.38781494 115.93352539 122.90062988 115.22314453 122.39868164 C113.84090269 121.42182597 112.45874081 120.44485714 111.07666016 119.46777344 C108.26260166 117.47881039 105.44727504 115.49164676 102.63183594 113.50463867 C101.21178781 112.50237612 99.7918657 111.49993499 98.37207031 110.49731445 C94.84522401 108.00689439 91.31683792 105.51871538 87.78515625 103.03515625 C80.38114605 97.82451449 73.01312785 92.57038721 65.6875 87.25 C59.86431185 83.0221974 53.97311141 78.95036727 47.95703125 75 C43.93257336 72.27804169 40.04263042 69.38807942 36.13916016 66.49658203 C29.12614724 61.31967763 21.97562372 56.34241124 14.82421875 51.359375 C13.65197754 50.50388062 13.65197754 50.50388062 12.45605469 49.63110352 C10.02309134 47.91576052 10.02309134 47.91576052 7.19238281 46.75756836 C3.9269647 45.13497343 2.16892521 43.95939625 0 41 C-1.67602312 34.21711968 -0.93419489 26.97388086 -0.625 20.0625 C-0.57480368 18.11925455 -0.52918249 16.17588519 -0.48828125 14.23242188 C-0.37842622 9.4852112 -0.20610778 4.74396683 0 0 Z " fill="#5C5C5C" transform="translate(88,494)"/>
<path d="M0 0 C19.10659754 -0.21061425 38.21295825 -0.36913064 57.32047749 -0.46630955 C66.19329539 -0.51263909 75.06539038 -0.57575615 83.93774414 -0.67895508 C91.67455094 -0.76890267 99.41083402 -0.82678069 107.14814919 -0.84679645 C111.24208363 -0.85849008 115.33452038 -0.88579874 119.42797279 -0.95157051 C123.28866806 -1.01309434 127.14726291 -1.03142027 131.00840187 -1.01796913 C132.41811074 -1.02042621 133.8278967 -1.03807746 135.2371788 -1.07284927 C144.62122322 -1.29284439 149.80365097 0.2592551 156.70634747 6.73452854 C157.4632528 7.48213412 158.22015814 8.2297397 159 9 C160.38236195 10.15177999 161.77553472 11.29095822 163.1875 12.40625 C163.81744873 12.91752441 164.44739746 13.42879883 165.09643555 13.95556641 C165.72461182 14.46522949 166.35278809 14.97489258 167 15.5 C169.04786862 17.16351579 171.09548963 18.82733594 173.14306641 20.49121094 C174.76566368 21.80959789 176.38865777 23.12749645 178.01171875 24.4453125 C184.50318952 29.73325511 190.91239188 35.11283089 197.28662109 40.54101562 C198.44511347 41.52750044 199.6043127 42.51315565 200.76416016 43.49804688 C207.02085843 48.81256402 213.25257011 54.15588432 219.375 59.625 C220.26960937 60.42164063 221.16421875 61.21828125 222.0859375 62.0390625 C224 64 224 64 224 66 C222.671875 67.33984375 222.671875 67.33984375 220.75 68.9375 C215.02790858 73.80779147 209.5152503 78.89866682 204 84 C203.3807666 84.57266602 202.7615332 85.14533203 202.12353516 85.73535156 C200.16352262 87.55041457 198.20631519 89.36845301 196.25 91.1875 C195.6101416 91.78062988 194.9702832 92.37375977 194.31103516 92.98486328 C190.23574864 96.78245797 186.32657938 100.6826571 182.61328125 104.83984375 C181 106 181 106 179.17602539 105.73925781 C176.69155137 104.89521121 174.7740083 103.7578285 172.5703125 102.33203125 C171.7045459 101.77604248 170.8387793 101.22005371 169.94677734 100.6472168 C169.01559082 100.04176025 168.0844043 99.43630371 167.125 98.8125 C165.11981312 97.52340414 163.1146042 96.23434254 161.109375 94.9453125 C159.07288073 93.63026399 157.03642141 92.31516133 155 91 C129.44169939 74.54878506 103.48040126 58.91301134 77 44 C75.40526855 43.1013623 75.40526855 43.1013623 73.77832031 42.18457031 C66.52928922 38.10431779 59.26657487 34.04890334 52 30 C50.90300781 29.38769531 49.80601562 28.77539062 48.67578125 28.14453125 C45.2640218 26.24038472 41.85111839 24.33831184 38.4375 22.4375 C37.32705322 21.81907227 36.21660645 21.20064453 35.07250977 20.56347656 C29.40120006 17.41389709 23.71418496 14.29829425 17.99609375 11.234375 C16.88242432 10.6369751 15.76875488 10.0395752 14.62133789 9.42407227 C12.49962742 8.28909997 10.37521643 7.15915782 8.24780273 6.03491211 C7.30751221 5.5322583 6.36722168 5.02960449 5.3984375 4.51171875 C4.57005371 4.07303467 3.74166992 3.63435059 2.88818359 3.18237305 C1 2 1 2 0 0 Z " fill="#FDD65E" transform="translate(281,360)"/>
<path d="M0 0 C2.98341852 1.48467715 5.1154574 3.71384187 7.41430664 6.0715332 C7.92475021 6.58384995 8.43519379 7.09616669 8.96110535 7.62400818 C10.04123381 8.71085415 11.11776074 9.80128957 12.19091797 10.89501953 C13.80927895 12.54419268 15.43773704 14.18278228 17.06860352 15.81958008 C22.03844162 20.82718189 26.89342734 25.89283217 31.48339844 31.25488281 C34.02160906 34.14641816 36.76718154 36.81950619 39.51977539 39.50512695 C43.6180153 43.503653 47.4769336 47.61961929 51.22094727 51.95239258 C54.23088199 55.38718236 57.37941176 58.68993896 60.51977539 62.00512695 C64.91844535 66.64867132 69.22816706 71.34403591 73.42114258 76.17456055 C75.53575904 78.59597078 77.7134231 80.95633146 79.89477539 83.31762695 C83.16507012 86.89773908 86.30004156 90.53428932 89.33227539 94.31762695 C92.88764841 98.72880658 96.6393353 102.88313785 100.51977539 107.00512695 C105.97280176 112.79995649 111.07778354 118.76421322 116.01977539 125.00512695 C117.35264046 126.67216812 118.68591433 128.3388826 120.01977539 130.00512695 C115.00727268 130.30583085 110.00019443 130.5212743 104.98071289 130.66430664 C103.28088839 130.72400591 101.58166241 130.80541282 99.8840332 130.91040039 C91.08658275 131.44011701 84.02426139 131.6190786 76.93301392 125.85406494 C74.66999827 123.7982335 72.52141009 121.66414935 70.42340088 119.4407959 C68.44710114 117.41937909 66.26441492 115.71749249 64.01977539 114.00512695 C59.92699112 110.77398148 55.96618946 107.41164416 52.01977539 104.00512695 C47.22953769 99.87233509 42.38512624 95.83673751 37.42211914 91.91137695 C34.89256523 89.9041862 32.39151601 87.86547365 29.89477539 85.81762695 C27.93649972 84.21338982 25.97819499 82.60918836 24.01977539 81.00512695 C23.11001953 80.25972656 23.11001953 80.25972656 22.18188477 79.49926758 C14.36380558 73.0998229 6.5082371 66.77511808 -1.52709961 60.6496582 C-4.07316717 58.70727431 -6.6004716 56.7424485 -9.12084961 54.7668457 C-10.61559531 53.5962141 -12.11038805 52.42564254 -13.60522461 51.25512695 C-14.35126953 50.67021484 -15.09731445 50.08530273 -15.8659668 49.48266602 C-19.97649758 46.2789982 -24.12780736 43.15093352 -28.35522461 40.1027832 C-29.23227051 39.46888672 -30.10931641 38.83499023 -31.01293945 38.18188477 C-32.71531766 36.95760901 -34.4238307 35.74181037 -36.13891602 34.53540039 C-36.90381348 33.98529297 -37.66871094 33.43518555 -38.45678711 32.8684082 C-39.13821777 32.38670166 -39.81964844 31.90499512 -40.52172852 31.40869141 C-41.00303223 30.94551514 -41.48433594 30.48233887 -41.98022461 30.00512695 C-41.98022461 29.01512695 -41.98022461 28.02512695 -41.98022461 27.00512695 C-39.85159675 25.29283366 -37.76107811 23.80561756 -35.48022461 22.31762695 C-34.78767578 21.85646484 -34.09512695 21.39530273 -33.3815918 20.92016602 C-31.81324783 19.87618414 -30.24243076 18.83591173 -28.66967773 17.79858398 C-25.66245787 15.79322477 -22.68852341 13.7431116 -19.71459961 11.6887207 C-17.55348875 10.21034804 -15.39203167 8.73248137 -13.23022461 7.25512695 C-12.18286133 6.52720947 -11.13549805 5.79929199 -10.05639648 5.04931641 C-9.06704102 4.37989014 -8.07768555 3.71046387 -7.05834961 3.02075195 C-6.17566406 2.41521484 -5.29297852 1.80967773 -4.38354492 1.18579102 C-1.98022461 0.00512695 -1.98022461 0.00512695 0 0 Z " fill="#FDD65E" transform="translate(560.980224609375,477.994873046875)"/>
<path d="M0 0 C2.13757117 0.79185433 3.70313686 1.72234983 5.54882812 3.05541992 C6.21503174 3.53156738 6.88123535 4.00771484 7.56762695 4.49829102 C8.27943115 5.01601074 8.99123535 5.53373047 9.72460938 6.06713867 C11.26356984 7.17014563 12.80263517 8.27300629 14.34179688 9.37573242 C15.12522461 9.94018066 15.90865234 10.50462891 16.71582031 11.08618164 C20.24488372 13.62274236 23.79688915 16.12637497 27.34960938 18.62963867 C28.02975098 19.10989502 28.70989258 19.59015137 29.41064453 20.08496094 C38.26652372 26.33610953 47.15250596 32.5444186 56.03710938 38.75463867 C54.67422331 42.84329687 51.92946893 44.2314888 48.47460938 46.50463867 C47.81146729 46.94348389 47.1483252 47.3823291 46.46508789 47.83447266 C41.64592792 50.92851222 36.71834551 53.52050409 31.47460938 55.81713867 C30.82097412 56.10363281 30.16733887 56.39012695 29.49389648 56.68530273 C18.66043776 61.20539793 7.94438966 60.66567774 -2.96289062 56.75463867 C-13.74890949 52.16584994 -21.71224093 46.67630401 -27.33789062 36.19213867 C-28.81218463 30.44239203 -28.23401068 25.96464711 -25.40039062 20.84838867 C-20.83400982 14.19735576 -14.40711718 9.12409729 -8.15039062 4.12963867 C-7.59939697 3.67927246 -7.04840332 3.22890625 -6.48071289 2.76489258 C-2.50002344 -0.31250293 -2.50002344 -0.31250293 0 0 Z " fill="#5D5D5D" transform="translate(158.962890625,617.245361328125)"/>
<path d="M0 0 C1.16982422 0.80824219 1.16982422 0.80824219 2.36328125 1.6328125 C3.29785156 2.25414062 4.23242188 2.87546875 5.1953125 3.515625 C25.14699655 18.52514878 25.14699655 18.52514878 26.73828125 27.82421875 C27.05088083 33.59754228 25.62388805 36.92304712 22.36328125 41.6328125 C21.82703125 42.4578125 21.29078125 43.2828125 20.73828125 44.1328125 C12.4155328 52.89360034 0.52412993 58.88272959 -11.546875 59.87109375 C-28.61760913 60.27300695 -44.81725295 51.58277287 -57.63671875 40.6328125 C-57.63671875 39.9728125 -57.63671875 39.3128125 -57.63671875 38.6328125 C-55.64453125 37.14453125 -55.64453125 37.14453125 -52.76171875 35.3203125 C-47.37531408 31.82009889 -42.14256748 28.16314972 -36.94921875 24.3828125 C-30.16428338 19.45027675 -23.34287121 14.57590609 -16.4699707 9.76660156 C-15.82116943 9.31124023 -15.17236816 8.85587891 -14.50390625 8.38671875 C-13.86936523 7.94602051 -13.23482422 7.50532227 -12.58105469 7.05126953 C-11.1989843 6.04300372 -9.85618188 4.97993694 -8.54394531 3.88232422 C-3.28500822 -0.45746781 -3.28500822 -0.45746781 0 0 Z " fill="#5C5C5C" transform="translate(703.63671875,732.3671875)"/>
<path d="M0 0 C5.27458535 2.90205348 10.17134291 6.1203482 15.0625 9.625 C15.80564453 10.15351562 16.54878906 10.68203125 17.31445312 11.2265625 C19.54538208 12.81435796 21.77311366 14.40654136 24 16 C25.20696452 16.8620726 26.41399088 17.72405863 27.62109375 18.5859375 C29.30308077 19.78694412 30.98440657 20.9888056 32.66333008 22.1940918 C35.95012039 24.55072092 39.25547933 26.8777328 42.578125 29.18359375 C43.35414063 29.72435547 44.13015625 30.26511719 44.9296875 30.82226562 C46.44742734 31.87880674 47.96815348 32.93107413 49.4921875 33.97851562 C50.18054688 34.45869141 50.86890625 34.93886719 51.578125 35.43359375 C52.19075195 35.85697021 52.80337891 36.28034668 53.43457031 36.71655273 C55 38 55 38 57 41 C50.16136257 46.0587181 43.28830444 50.60836128 35.6875 54.4375 C35.04296875 54.76685547 34.3984375 55.09621094 33.734375 55.43554688 C21.9933851 61.1859908 10.44392096 61.45582961 -1.890625 57.265625 C-11.68294717 53.27980543 -20.64149865 47.27432927 -26 38 C-27.63578883 33.09263351 -28.14641745 28.45660882 -25.90625 23.65625 C-19.25062035 13.31878267 -9.95352757 6.86116949 0 0 Z " fill="#5C5C5C" transform="translate(321,732)"/>
<path d="M0 0 C0.77214844 0.52335938 1.54429687 1.04671875 2.33984375 1.5859375 C3.23703125 2.18148437 4.13421875 2.77703125 5.05859375 3.390625 C6.4353125 4.41542969 6.4353125 4.41542969 7.83984375 5.4609375 C9.2165625 6.47800781 9.2165625 6.47800781 10.62109375 7.515625 C11.51828125 8.19882812 12.41546875 8.88203125 13.33984375 9.5859375 C14.21253906 10.24980469 15.08523438 10.91367187 15.984375 11.59765625 C21.68230145 16.40734872 25.86929796 22.42944969 26.71484375 29.8984375 C25.94581789 37.46052512 22.10989434 42.57514267 16.66015625 47.703125 C7.38488033 55.22952735 -5.29289217 60.48328092 -17.35546875 59.828125 C-18.11601563 59.74820313 -18.8765625 59.66828125 -19.66015625 59.5859375 C-20.33820312 59.52664063 -21.01625 59.46734375 -21.71484375 59.40625 C-34.33141975 57.45425145 -47.94535141 48.60397848 -57.66015625 40.5859375 C-57.66015625 39.9259375 -57.66015625 39.2659375 -57.66015625 38.5859375 C-55.27986298 36.74830177 -52.88978861 35.03123804 -50.41015625 33.3359375 C-49.65017334 32.80798584 -48.89019043 32.28003418 -48.10717773 31.73608398 C-46.4722059 30.60055313 -44.83533099 29.46775856 -43.19677734 28.33740234 C-39.86322835 26.03568141 -36.54130109 23.71760674 -33.22192383 21.39550781 C-31.55329278 20.22907978 -29.88254549 19.06567341 -28.2097168 17.90527344 C-23.93163087 14.92741043 -19.71466696 11.89501817 -15.56640625 8.73828125 C-14.75163818 8.12525146 -13.93687012 7.51222168 -13.09741211 6.88061523 C-11.54745456 5.70926354 -10.00853257 4.52312242 -8.48266602 3.32055664 C-3.36764284 -0.52418523 -3.36764284 -0.52418523 0 0 Z " fill="#5C5C5C" transform="translate(866.66015625,617.4140625)"/>
<path d="M0 0 C9.97763056 3.58477744 21.49685376 14.1055276 26.234375 23.5 C27.9834425 28.10534286 27.85817795 31.17643874 26.609375 35.9375 C20.34788179 47.34236263 8.84576024 54.51811174 -3.2265625 58.55078125 C-22.21325613 61.94371026 -37.1068626 54.34683057 -52.390625 43.9375 C-53.20273437 43.40382813 -54.01484375 42.87015625 -54.8515625 42.3203125 C-55.35945312 41.86398437 -55.86734375 41.40765625 -56.390625 40.9375 C-56.390625 39.9475 -56.390625 38.9575 -56.390625 37.9375 C-54.3984375 36.3515625 -54.3984375 36.3515625 -51.515625 34.5625 C-46.17776817 31.13727103 -41.01339129 27.55140166 -35.890625 23.8125 C-28.30220574 18.29097807 -20.64141408 12.88092746 -12.93945312 7.51904297 C-12.14216797 6.96361816 -11.34488281 6.40819336 -10.5234375 5.8359375 C-9.82105957 5.34786621 -9.11868164 4.85979492 -8.39501953 4.35693359 C-6.99315382 3.36418728 -5.62373651 2.32473496 -4.28173828 1.25244141 C-2.390625 -0.0625 -2.390625 -0.0625 0 0 Z " fill="#5C5C5C" transform="translate(784.390625,675.0625)"/>
<path d="M0 0 C2.37495257 0.87302944 4.14700125 2.00206768 6.2109375 3.46704102 C7.00806152 4.02875 7.80518555 4.59045898 8.62646484 5.16918945 C9.4767627 5.77794922 10.32706055 6.38670898 11.203125 7.01391602 C12.08822754 7.64072266 12.97333008 8.2675293 13.88525391 8.91333008 C20.50695793 13.6126039 27.10575385 18.34587472 33.66796875 23.12792969 C37.18365356 25.68934592 40.71396108 28.21442561 44.3125 30.65844727 C44.97072754 31.11058594 45.62895508 31.56272461 46.30712891 32.02856445 C47.53617114 32.86987124 48.77249164 33.70068071 50.01708984 34.51879883 C51.6484375 35.64282227 51.6484375 35.64282227 54.078125 37.76391602 C54.078125 39.08391602 54.078125 40.40391602 54.078125 41.76391602 C51.64046042 43.62392063 49.33317329 45.16256109 46.703125 46.70141602 C45.60689819 47.36173828 45.60689819 47.36173828 44.48852539 48.03540039 C30.33011433 56.47698366 17.28172605 61.28104087 0.65625 58.11157227 C-8.60494753 55.31641809 -16.4804802 49.96312197 -22.921875 42.76391602 C-23.64375 42.04204102 -24.365625 41.32016602 -25.109375 40.57641602 C-28.10356409 35.93026054 -29.5142203 30.9889071 -28.5 25.46704102 C-25.56818439 17.66730515 -9.59615279 -1.1787957 0 0 Z " fill="#5C5C5C" transform="translate(240.921875,675.236083984375)"/>
<path d="M0 0 C3.07176249 1.22559828 5.54164361 3.24259263 8.11865234 5.27050781 C8.97595947 5.94110229 8.97595947 5.94110229 9.85058594 6.62524414 C26.000943 19.46172008 26.000943 19.46172008 27.36865234 30.20800781 C26.33845062 38.59679331 21.96111129 43.35343011 15.63427734 48.72753906 C5.50465819 56.38330614 -6.29560092 59.77241599 -18.92041016 58.33300781 C-30.97158648 56.17994405 -46.49988873 48.79186519 -55.06884766 39.77050781 C-55.06884766 38.78050781 -55.06884766 37.79050781 -55.06884766 36.77050781 C-53.56274414 35.41113281 -53.56274414 35.41113281 -51.43994141 34.02050781 C-50.66005859 33.50037109 -49.88017578 32.98023438 -49.07666016 32.44433594 C-48.22845703 31.89197266 -47.38025391 31.33960938 -46.50634766 30.77050781 C-44.74322456 29.59552905 -42.98152001 28.4184191 -41.22119141 27.23925781 C-40.34317871 26.65273438 -39.46516602 26.06621094 -38.56054688 25.46191406 C-35.1610225 23.15426123 -31.86022455 20.72877489 -28.56884766 18.27050781 C-22.72304731 13.9494884 -16.83167155 9.69656973 -10.88134766 5.52050781 C-10.06666016 4.93462891 -9.25197266 4.34875 -8.41259766 3.74511719 C-7.26210938 2.94557617 -7.26210938 2.94557617 -6.08837891 2.12988281 C-5.40880127 1.6500293 -4.72922363 1.17017578 -4.02905273 0.67578125 C-2.06884766 -0.22949219 -2.06884766 -0.22949219 0 0 Z " fill="#5D5D5D" transform="translate(622.06884765625,790.2294921875)"/>
<path d="M0 0 C3.15549863 1.16544549 5.45426143 3.03180522 8.1171875 5.078125 C8.91237793 5.68829468 8.91237793 5.68829468 9.72363281 6.31079102 C11.23553789 7.47585001 12.73910172 8.65170986 14.2421875 9.828125 C14.94085937 10.36824219 15.63953125 10.90835938 16.359375 11.46484375 C17.69864581 12.5317748 18.97995483 13.67107838 20.2421875 14.828125 C20.2421875 15.488125 20.2421875 16.148125 20.2421875 16.828125 C20.9021875 16.828125 21.5621875 16.828125 22.2421875 16.828125 C28.28720358 27.55802854 28.28720358 27.55802854 27.2421875 33.828125 C24.65588487 42.21659339 18.19341833 47.73500703 10.68359375 51.8515625 C-0.80142568 57.8240713 -12.91355776 60.10863395 -25.7578125 56.953125 C-36.15281677 53.23167769 -45.90246628 46.30424976 -54.7578125 39.828125 C-54.01904297 36.03857422 -54.01904297 36.03857422 -51.66796875 34.14453125 C-50.72824219 33.56574219 -49.78851562 32.98695313 -48.8203125 32.390625 C-43.49827095 28.99130448 -38.35808588 25.42666485 -33.2578125 21.703125 C-26.46754806 16.76574875 -19.6340028 11.89518178 -12.7578125 7.078125 C-11.89091797 6.46952637 -11.02402344 5.86092773 -10.13085938 5.23388672 C-9.32712891 4.6720166 -8.52339844 4.11014648 -7.6953125 3.53125 C-6.98246094 3.03270508 -6.26960937 2.53416016 -5.53515625 2.02050781 C-2.20242991 -0.2153487 -2.20242991 -0.2153487 0 0 Z " fill="#5C5C5C" transform="translate(945.7578125,561.171875)"/>
<path d="M0 0 C2.44776936 1.22365165 4.60089616 2.53461867 6.83007812 4.11791992 C8.0290271 4.96362549 8.0290271 4.96362549 9.25219727 5.82641602 C10.0977417 6.43050293 10.94328613 7.03458984 11.81445312 7.65698242 C12.69544678 8.28040527 13.57644043 8.90382813 14.48413086 9.54614258 C16.29929074 10.83105852 18.11300769 12.11801522 19.92529297 13.40698242 C23.10425524 15.66548661 26.29428812 17.90795544 29.48510742 20.1496582 C32.23069603 22.08186658 34.96852645 24.02490202 37.70605469 25.96850586 C39.46246758 27.20990121 41.22702912 28.43869938 42.99414062 29.66479492 C43.98671875 30.3634668 44.97929687 31.06213867 46.00195312 31.78198242 C46.84628906 32.36979492 47.690625 32.95760742 48.56054688 33.56323242 C50.63857502 35.34555675 51.55348427 36.76284691 52.56445312 39.28198242 C38.04963304 49.91493202 22.56476381 60.00629928 3.79882812 57.91870117 C-8.75851279 55.44666425 -19.87941214 48.58580251 -27.43554688 38.28198242 C-29.69191487 34.25976122 -29.90111602 30.86007897 -29.43554688 26.28198242 C-26.37069138 16.22349694 -17.25298926 9.64876487 -9.18554688 3.59448242 C-8.30020264 2.90636475 -8.30020264 2.90636475 -7.39697266 2.2043457 C-3.0835706 -0.90905986 -3.0835706 -0.90905986 0 0 Z " fill="#5C5C5C" transform="translate(404.435546875,790.718017578125)"/>
<path d="M0 0 C4.2218622 1.45016873 7.40527983 4.04442566 10.9453125 6.71875 C12.5517954 7.90710041 14.15992342 9.09322947 15.76953125 10.27734375 C16.59888184 10.88819824 17.42823242 11.49905273 18.28271484 12.12841797 C22.38122026 15.10076103 26.56678982 17.94156186 30.7578125 20.78125 C36.84642827 24.91576172 42.8693708 29.10626618 48.7890625 33.48046875 C50.43522861 34.686602 52.12231407 35.83675105 53.8203125 36.96875 C53.46960097 39.6863053 53.08444084 40.74270269 50.96948242 42.55273438 C50.17131104 43.05095703 49.37313965 43.54917969 48.55078125 44.0625 C47.6680957 44.61655518 46.78541016 45.17061035 45.87597656 45.74145508 C44.92948242 46.3114624 43.98298828 46.88146973 43.0078125 47.46875 C42.04456055 48.05100342 41.08130859 48.63325684 40.08886719 49.2331543 C27.10361797 56.92386181 14.67072127 60.56011703 -0.359375 57.2734375 C-3.09936894 56.34975682 -5.59941251 55.27105861 -8.1796875 53.96875 C-9.47132812 53.33259766 -9.47132812 53.33259766 -10.7890625 52.68359375 C-18.53349277 48.47109304 -25.34570078 42.52520991 -28.1796875 33.96875 C-29.02749493 27.71617018 -27.77327273 23.90421006 -24.3515625 18.625 C-19.99189768 13.29303584 -14.59370153 9.1796498 -9.1796875 4.96875 C-8.44621094 4.36160156 -7.71273437 3.75445313 -6.95703125 3.12890625 C-2.95991015 -0.04243599 -2.95991015 -0.04243599 0 0 Z " fill="#5C5C5C" transform="translate(79.1796875,561.03125)"/>
<path d="M0 0 C0.99 0.33 1.98 0.66 3 1 C2.67 1.66 2.34 2.32 2 3 C1.91308999 5.84429357 1.88446198 8.66379176 1.90234375 11.5078125 C1.9037587 12.34843231 1.90517365 13.18905212 1.90663147 14.05514526 C1.91223763 16.74513275 1.92479114 19.43503759 1.9375 22.125 C1.94251421 23.94661338 1.94707725 25.76822807 1.95117188 27.58984375 C1.96220906 32.05992777 1.9794778 36.52994986 2 41 C1.34 41 0.68 41 0 41 C0 27.47 0 13.94 0 0 Z " fill="#939393" transform="translate(88,494)"/>
<path d="M0 0 C0.66 0.33 1.32 0.66 2 1 C-1.3 4.3 -4.6 7.6 -8 11 C-8.66 10.67 -9.32 10.34 -10 10 C-6.66666667 6.66666667 -3.33333333 3.33333333 0 0 Z " fill="#9B9B9B" transform="translate(66,569)"/>
<path d="M0 0 C0.66 0.33 1.32 0.66 2 1 C0.35 2.98 -1.3 4.96 -3 7 C-3.99 6.67 -4.98 6.34 -6 6 C-6 5.34 -6 4.68 -6 4 C-4.03852126 2.61061923 -2.03833424 1.2739589 0 0 Z " fill="#A4A4A4" transform="translate(652,767)"/>
</svg>
